<svg width="18" height="17" viewBox="0 0 18 17" fill="none" xmlns="http://www.w3.org/2000/svg">
<path d="M17.6755 4.77199C17.5536 4.63575 17.404 4.5268 17.2367 4.45234C17.0693 4.37787 16.888 4.33958 16.7047 4.33999H12.8538C12.8538 3.32156 12.4474 2.34485 11.724 1.62471C11.0006 0.904569 10.0195 0.5 8.99643 0.5C7.97339 0.5 6.99225 0.904569 6.26886 1.62471C5.54546 2.34485 5.13906 3.32156 5.13906 4.33999H1.28812C1.10591 4.34048 0.925846 4.37921 0.759682 4.45364C0.593519 4.52808 0.444987 4.63656 0.323776 4.77199C0.203578 4.90692 0.113379 5.06562 0.0590903 5.23768C0.00480191 5.40974 -0.0123504 5.59127 0.00875761 5.77039L1.15472 15.3704C1.19189 15.6832 1.34359 15.9713 1.58082 16.1797C1.81804 16.3881 2.12413 16.5022 2.44051 16.5H15.5596C15.876 16.5022 16.1821 16.3881 16.4193 16.1797C16.6565 15.9713 16.8082 15.6832 16.8454 15.3704L17.9913 5.77039C18.0123 5.59122 17.9951 5.40965 17.9406 5.23758C17.8862 5.06552 17.7959 4.90686 17.6755 4.77199ZM8.99643 1.78C9.67846 1.78 10.3325 2.04971 10.8148 2.5298C11.2971 3.00989 11.568 3.66104 11.568 4.33999H6.42485C6.42485 3.66104 6.69578 3.00989 7.17805 2.5298C7.66031 2.04971 8.3144 1.78 8.99643 1.78ZM15.5668 15.22C15.5645 15.2208 15.5619 15.2208 15.5596 15.22H2.42685L1.28812 5.61999H5.13906V7.53999C5.13906 7.70972 5.20679 7.87251 5.32736 7.99253C5.44793 8.11256 5.61145 8.17999 5.78195 8.17999C5.95246 8.17999 6.11598 8.11256 6.23655 7.99253C6.35712 7.87251 6.42485 7.70972 6.42485 7.53999V5.61999H11.568V7.53999C11.568 7.70972 11.6357 7.87251 11.7563 7.99253C11.8769 8.11256 12.0404 8.17999 12.2109 8.17999C12.3814 8.17999 12.5449 8.11256 12.6655 7.99253C12.7861 7.87251 12.8538 7.70972 12.8538 7.53999V5.61999H16.7112L15.5668 15.22Z" fill="black"/>
</svg>
