<svg width="18" height="17" viewBox="0 0 18 17" fill="none" xmlns="http://www.w3.org/2000/svg">
<path d="M13.0179 0.5C11.3585 0.5 9.90563 1.24017 9 2.4913C8.09437 1.24017 6.64152 0.5 4.98214 0.5C3.66125 0.501544 2.39489 1.04651 1.46088 2.01534C0.52687 2.98418 0.00148881 4.29775 0 5.66789C0 11.5026 8.34027 16.2254 8.69545 16.4204C8.78906 16.4727 8.8937 16.5 9 16.5C9.1063 16.5 9.21094 16.4727 9.30455 16.4204C9.65973 16.2254 18 11.5026 18 5.66789C17.9985 4.29775 17.4731 2.98418 16.5391 2.01534C15.6051 1.04651 14.3387 0.501544 13.0179 0.5ZM9 15.0701C7.53268 14.1832 1.28571 10.1431 1.28571 5.66789C1.28699 4.65139 1.67684 3.6769 2.36978 2.95813C3.06272 2.23936 4.00218 1.83497 4.98214 1.83365C6.54509 1.83365 7.85732 2.69718 8.40536 4.08418C8.45379 4.20648 8.53618 4.31109 8.64206 4.38471C8.74794 4.45832 8.87253 4.49763 9 4.49763C9.12747 4.49763 9.25206 4.45832 9.35794 4.38471C9.46382 4.31109 9.54621 4.20648 9.59464 4.08418C10.1427 2.69468 11.4549 1.83365 13.0179 1.83365C13.9978 1.83497 14.9373 2.23936 15.6302 2.95813C16.3232 3.6769 16.713 4.65139 16.7143 5.66789C16.7143 10.1364 10.4657 14.1824 9 15.0701Z" fill="black"/>
</svg>
