<svg width="17" height="17" viewBox="0 0 17 17" fill="none" xmlns="http://www.w3.org/2000/svg">
<path d="M16.9036 15.5264C15.6601 13.4222 13.7437 11.9134 11.5072 11.1982C12.6135 10.5536 13.473 9.57145 13.9537 8.40253C14.4344 7.23361 14.5098 5.94255 14.1683 4.72763C13.8268 3.51271 13.0873 2.4411 12.0633 1.67736C11.0393 0.913628 9.78743 0.5 8.5 0.5C7.21257 0.5 5.96073 0.913628 4.93673 1.67736C3.91273 2.4411 3.17318 3.51271 2.83167 4.72763C2.49016 5.94255 2.56556 7.23361 3.04629 8.40253C3.52702 9.57145 4.38651 10.5536 5.49276 11.1982C3.25631 11.9126 1.33994 13.4214 0.096379 15.5264C0.0507755 15.5992 0.020527 15.6802 0.00741823 15.7646C-0.00569053 15.849 -0.00139402 15.9351 0.0200543 16.0179C0.0415025 16.1006 0.0796682 16.1783 0.132299 16.2464C0.18493 16.3145 0.250961 16.3716 0.326495 16.4143C0.402029 16.457 0.485536 16.4844 0.57209 16.4951C0.658644 16.5057 0.746491 16.4992 0.830448 16.476C0.914405 16.4529 0.992771 16.4135 1.06092 16.3602C1.12908 16.3069 1.18563 16.2408 1.22726 16.1658C2.76558 13.5637 5.48459 12.0101 8.5 12.0101C11.5154 12.0101 14.2344 13.5637 15.7727 16.1658C15.8144 16.2408 15.8709 16.3069 15.9391 16.3602C16.0072 16.4135 16.0856 16.4529 16.1695 16.476C16.2535 16.4992 16.3414 16.5057 16.4279 16.4951C16.5145 16.4844 16.598 16.457 16.6735 16.4143C16.749 16.3716 16.8151 16.3145 16.8677 16.2464C16.9203 16.1783 16.9585 16.1006 16.9799 16.0179C17.0014 15.9351 17.0057 15.849 16.9926 15.7646C16.9795 15.6802 16.9492 15.5992 16.9036 15.5264ZM3.92749 6.25614C3.92749 5.37101 4.19566 4.50576 4.6981 3.7698C5.20053 3.03383 5.91466 2.46022 6.75018 2.1215C7.58569 1.78277 8.50507 1.69414 9.39205 1.86683C10.279 2.03951 11.0938 2.46574 11.7333 3.09162C12.3727 3.7175 12.8082 4.51493 12.9847 5.38305C13.1611 6.25118 13.0705 7.15102 12.7244 7.96877C12.3784 8.78653 11.7923 9.48547 11.0403 9.97723C10.2884 10.469 9.40436 10.7315 8.5 10.7315C7.28769 10.7302 6.12541 10.2583 5.26818 9.41926C4.41095 8.58026 3.92879 7.44268 3.92749 6.25614Z" fill="black"/>
</svg>
