<svg width="17" height="16" viewBox="0 0 17 16" fill="none" xmlns="http://www.w3.org/2000/svg">
<path d="M15.9978 14.95L12.1505 11.1034C13.2656 9.76465 13.8217 8.0475 13.703 6.30919C13.5843 4.57088 12.8 2.94524 11.5133 1.77045C10.2265 0.595655 8.53643 -0.0378381 6.79452 0.00174965C5.05261 0.0413374 3.39302 0.750958 2.16099 1.98299C0.928952 3.21503 0.219331 4.87462 0.179743 6.61653C0.140156 8.35844 0.773649 10.0486 1.94844 11.3353C3.12323 12.622 4.74887 13.4063 6.48718 13.525C8.2255 13.6437 9.94265 13.0876 11.2814 11.9725L15.128 15.8199C15.1851 15.877 15.2529 15.9223 15.3276 15.9532C15.4022 15.9841 15.4822 16 15.5629 16C15.6437 16 15.7237 15.9841 15.7983 15.9532C15.8729 15.9223 15.9407 15.877 15.9978 15.8199C16.055 15.7627 16.1003 15.6949 16.1312 15.6203C16.1621 15.5457 16.178 15.4657 16.178 15.3849C16.178 15.3042 16.1621 15.2242 16.1312 15.1496C16.1003 15.0749 16.055 15.0071 15.9978 14.95ZM1.42441 6.77888C1.42441 5.68467 1.74889 4.61502 2.3568 3.70521C2.96472 2.7954 3.82877 2.08629 4.8397 1.66755C5.85062 1.24882 6.96302 1.13925 8.03621 1.35273C9.1094 1.5662 10.0952 2.09311 10.8689 2.86684C11.6426 3.64057 12.1696 4.62636 12.383 5.69955C12.5965 6.77275 12.4869 7.88514 12.0682 8.89607C11.6495 9.90699 10.9404 10.771 10.0306 11.379C9.12074 11.9869 8.0511 12.3113 6.95688 12.3113C5.49008 12.3097 4.08382 11.7263 3.04663 10.6891C2.00945 9.65195 1.42604 8.24569 1.42441 6.77888Z" fill="#888884"/>
</svg>
